<?xml version="1.0" encoding="UTF-8" standalone="no"?><!-- Generator: Gravit.io --><svg xmlns="http://www.w3.org/2000/svg" xmlns:xlink="http://www.w3.org/1999/xlink" style="isolation:isolate" viewBox="0 0 100 100" width="100pt" height="100pt"><defs><clipPath id="_clipPath_VjmaI8HJgD0W5L0fJ5A3Zd8FbXk3ET3n"><rect width="100" height="100"/></clipPath></defs><g clip-path="url(#_clipPath_VjmaI8HJgD0W5L0fJ5A3Zd8FbXk3ET3n)"><path d=" M 90.833 0 L 9.167 0 C 4.167 0 0 4.167 0 9.167 L 0 90.833 C 0 95.833 4.167 100 9.167 100 L 50 100 L 50 58.333 L 37.5 58.333 L 37.5 45.833 L 50 45.833 L 50 33.333 C 50 22.917 54.167 16.667 66.667 16.667 L 79.167 16.667 L 79.167 29.167 L 73.75 29.167 C 70 29.167 66.667 32.5 66.667 36.25 L 66.667 45.833 L 83.333 45.833 L 81.25 58.333 L 66.667 58.333 L 66.667 100 L 90.833 100 C 95.833 100 100 95.833 100 90.833 L 100 9.167 C 100 4.167 95.833 0 90.833 0 Z " fill="rgb(66,115,227)"/></g></svg>