<?xml version="1.0" encoding="UTF-8" standalone="no"?><!-- Generator: Gravit.io --><svg xmlns="http://www.w3.org/2000/svg" xmlns:xlink="http://www.w3.org/1999/xlink" style="isolation:isolate" viewBox="0 0 100 100" width="100pt" height="100pt"><defs><clipPath id="_clipPath_YrB6GjK9001PK0nWPX2vAptN2Nru2F98"><rect width="100" height="100"/></clipPath></defs><g clip-path="url(#_clipPath_YrB6GjK9001PK0nWPX2vAptN2Nru2F98)"><path d=" M 51.023 41.19 L 51.023 60.29 L 78.774 60.29 C 75.153 71.875 65.289 80.155 51.023 80.155 C 42.863 80.158 35.035 76.982 29.263 71.327 C 23.49 65.672 20.246 58 20.243 50 C 20.246 42 23.49 34.328 29.263 28.673 C 35.035 23.018 42.863 19.842 51.023 19.845 C 58.358 19.837 65.451 22.415 71.006 27.11 L 85.369 13.025 C 75.981 4.631 63.729 -0.015 51.023 0 C 22.834 0 0 22.385 0 50 C 0 77.615 22.834 100 51.023 100 C 93.835 100 103.281 60.74 99.099 41.27 L 51.023 41.19 Z " fill="rgb(66,115,227)"/></g></svg>