<?xml version="1.0" encoding="UTF-8" standalone="no"?><!-- Generator: Gravit.io --><svg xmlns="http://www.w3.org/2000/svg" xmlns:xlink="http://www.w3.org/1999/xlink" style="isolation:isolate" viewBox="0 0 59.1 100" width="59.1pt" height="100pt"><defs><clipPath id="_clipPath_rWcdsKI4lI2WFe8lLveag2hVMa83Mcyr"><rect width="59.1" height="100"/></clipPath></defs><g clip-path="url(#_clipPath_rWcdsKI4lI2WFe8lLveag2hVMa83Mcyr)"><path d=" M 6.818 0 C 3.064 0 0 3.064 0 6.818 L 0 93.182 C 0 96.936 3.064 100 6.818 100 L 52.273 100 C 56.027 100 59.091 96.936 59.091 93.182 L 59.091 6.818 C 59.091 3.064 56.027 0 52.273 0 L 6.818 0 Z  M 4.545 15.909 L 54.545 15.909 L 54.545 81.818 L 4.545 81.818 L 4.545 15.909 Z  M 22.727 88.636 L 36.364 88.636 C 37.625 88.636 38.636 89.648 38.636 90.909 C 38.636 92.17 37.625 93.182 36.364 93.182 L 22.727 93.182 C 21.472 93.182 20.455 92.164 20.455 90.909 C 20.455 89.654 21.472 88.636 22.727 88.636 Z " fill="rgb(66,115,227)"/></g></svg>