<?xml version="1.0" encoding="UTF-8" standalone="no"?><!-- Generator: Gravit.io --><svg xmlns="http://www.w3.org/2000/svg" xmlns:xlink="http://www.w3.org/1999/xlink" style="isolation:isolate" viewBox="0 0 100 100" width="100pt" height="100pt"><defs><clipPath id="_clipPath_qhLBexSBAvKITxybu6HPLXpnosGLsZrw"><rect width="100" height="100"/></clipPath></defs><g clip-path="url(#_clipPath_qhLBexSBAvKITxybu6HPLXpnosGLsZrw)"><path d="M 17.6 10 L 82.4 10 C 86.595 10 90 13.405 90 17.6 L 90 82.4 C 90 86.595 86.595 90 82.4 90 L 17.6 90 C 13.405 90 10 86.595 10 82.4 L 10 17.6 C 10 13.405 13.405 10 17.6 10 Z" style="fill:none;stroke:#4273E3;stroke-width:3;stroke-linecap:square;stroke-miterlimit:2;"/><path d=" M 66 36 L 66 32 L 54 32 L 54 36 L 58 36 L 41 65 L 27.844 36 L 32 36 L 32 32 L 16 32 L 16 36 L 21 36 L 40 74 L 62 36 L 66 36 Z " fill="rgb(66,115,227)"/><path d=" M 84 36 L 84 32 L 70 32 L 70 36 L 75 36 L 61 65 L 46 36 L 50 36 L 50 32 L 36 32 L 36 36 L 40 36 L 60 74 L 80 36 L 84 36 Z " fill="rgb(66,115,227)"/></g></svg>